<svg width="27" height="27" viewBox="0 0 27 27" fill="none" xmlns="http://www.w3.org/2000/svg">
<path fill-rule="evenodd" clip-rule="evenodd" d="M13.5 27C20.9561 27 27 20.9561 27 13.5C27 6.04395 20.9561 0 13.5 0C6.04395 0 0 6.04395 0 13.5C0 20.9561 6.04395 27 13.5 27ZM20.7509 9.22725C20.814 9.16219 20.8634 9.08507 20.8961 9.0005C20.9288 8.91592 20.9441 8.82563 20.9412 8.73501C20.9382 8.64438 20.917 8.55528 20.8788 8.47303C20.8407 8.39078 20.7863 8.31705 20.7191 8.25626C20.6518 8.19547 20.5729 8.14886 20.4873 8.11921C20.4016 8.08956 20.3108 8.07747 20.2203 8.08368C20.1299 8.08989 20.0416 8.11425 19.9607 8.15533C19.8799 8.1964 19.8082 8.25334 19.7498 8.32275L11.664 17.2577L7.21575 13.0113C7.08632 12.8876 6.91305 12.8204 6.73405 12.8244C6.55506 12.8285 6.385 12.9035 6.2613 13.0329C6.1376 13.1623 6.07038 13.3356 6.07443 13.5146C6.07848 13.6936 6.15347 13.8636 6.2829 13.9874L11.2334 18.7124L11.7349 19.1916L12.2 18.6772L20.7509 9.22725Z" fill="#67A682"/>
</svg>
