<svg width="19" height="19" viewBox="0 0 19 19" fill="none" xmlns="http://www.w3.org/2000/svg">
<path d="M9.23125 0C4.52725 0 0 4.52725 0 9.23125C0 13.9353 4.52725 18.4625 9.23125 18.4625C13.9353 18.4625 18.4625 13.9353 18.4625 9.23125C18.4625 4.52725 13.9353 0 9.23125 0ZM9.23125 2.0125C13.2258 2.0125 16.45 5.23666 16.45 9.23125C16.45 13.2258 13.2258 16.45 9.23125 16.45C5.23666 16.45 2.0125 13.2258 2.0125 9.23125C2.0125 5.23666 5.23666 2.0125 9.23125 2.0125ZM8.575 5.29375V8.575H5.29375V9.8875H8.575V13.1688H9.8875V9.8875H13.1688V8.575H9.8875V5.29375H8.575Z" fill="white"/>
</svg>
