<svg width="27" height="27" viewBox="0 0 27 27" fill="none" xmlns="http://www.w3.org/2000/svg">
<path fill-rule="evenodd" clip-rule="evenodd" d="M13.5 27C20.9561 27 27 20.9561 27 13.5C27 6.04395 20.9561 0 13.5 0C6.04395 0 0 6.04395 0 13.5C0 20.9561 6.04395 27 13.5 27ZM18.9891 8.0109C19.1787 8.20074 19.2852 8.45809 19.2852 8.7264C19.2852 8.99471 19.1787 9.25206 18.9891 9.4419L14.931 13.5L18.9878 17.5568C19.1666 17.7487 19.264 18.0026 19.2593 18.2649C19.2547 18.5272 19.1484 18.7774 18.9629 18.9629C18.7774 19.1484 18.5272 19.2547 18.2649 19.2593C18.0026 19.264 17.7487 19.1666 17.5568 18.9878L13.5 14.9337L9.44325 18.9904C9.35056 19.0899 9.23878 19.1697 9.11458 19.2251C8.99038 19.2804 8.8563 19.3102 8.72036 19.3125C8.58441 19.3149 8.44937 19.2899 8.32329 19.239C8.19722 19.1881 8.08269 19.1123 7.98655 19.0162C7.8904 18.92 7.81461 18.8055 7.76368 18.6794C7.71276 18.5533 7.68775 18.4183 7.69015 18.2823C7.69255 18.1464 7.72231 18.0123 7.77765 17.8881C7.83298 17.7639 7.91277 17.6521 8.01225 17.5595L12.0663 13.5L8.0109 9.44325C7.91142 9.35056 7.83163 9.23878 7.7763 9.11458C7.72096 8.99038 7.6912 8.8563 7.6888 8.72036C7.6864 8.58441 7.71141 8.44937 7.76233 8.32329C7.81326 8.19722 7.88905 8.08269 7.9852 7.98655C8.08134 7.8904 8.19587 7.81461 8.32194 7.76368C8.44802 7.71276 8.58306 7.68775 8.71901 7.69015C8.85495 7.69255 8.98903 7.72231 9.11323 7.77765C9.23743 7.83298 9.34921 7.91277 9.4419 8.01225L13.5 12.0663L17.5568 8.00955C17.7466 7.81994 18.0039 7.71344 18.2722 7.71344C18.5406 7.71344 18.7979 7.81994 18.9878 8.00955" fill="#D14E4E"/>
</svg>
