<svg width="30" height="30" viewBox="0 0 30 30" fill="none" xmlns="http://www.w3.org/2000/svg">
<rect width="30" height="30" rx="15" fill="#BB665C"/>
<path d="M10.625 23C10.1437 23 9.73192 22.8261 9.3895 22.4782C9.04708 22.1304 8.87558 21.7117 8.875 21.2222V9.66667H8V7.88889H12.375V7H17.625V7.88889H22V9.66667H21.125V21.2222C21.125 21.7111 20.9538 22.1298 20.6114 22.4782C20.269 22.8267 19.8568 23.0006 19.375 23H10.625ZM19.375 9.66667H10.625V21.2222H19.375V9.66667ZM12.375 19.4444H14.125V11.4444H12.375V19.4444ZM15.875 19.4444H17.625V11.4444H15.875V19.4444Z" fill="white"/>
</svg>
