<svg width="14" height="24" viewBox="0 0 14 24" fill="none" xmlns="http://www.w3.org/2000/svg">
<path d="M13.5029 0.178421C12.35 0.0561696 11.1913 -0.00334337 10.032 0.000144857C6.18857 0.000144857 3.8 2.44801 3.8 6.38837V9.06366H0.571429C0.419876 9.06366 0.274531 9.12386 0.167367 9.23102C0.0602035 9.33817 0 9.48351 0 9.63506V14.0348C0 14.1864 0.0602035 14.3317 0.167367 14.4389C0.274531 14.546 0.419876 14.6062 0.571429 14.6062H3.8V23.4286C3.8 23.5801 3.8602 23.7255 3.96737 23.8326C4.07453 23.9398 4.21988 24 4.37143 24H8.91771C9.06927 24 9.21461 23.9398 9.32178 23.8326C9.42894 23.7255 9.48914 23.5801 9.48914 23.4286V14.6062H12.7074C12.8462 14.6063 12.9802 14.5559 13.0845 14.4644C13.1888 14.3729 13.2563 14.2467 13.2743 14.1091L13.8423 9.70934C13.8529 9.62869 13.8461 9.54672 13.8224 9.4689C13.7988 9.39108 13.7588 9.31921 13.7051 9.25809C13.6515 9.19697 13.5854 9.148 13.5113 9.11447C13.4372 9.08094 13.3568 9.06362 13.2754 9.06366H9.48914V6.82492C9.48914 5.71641 9.712 5.25358 11.0983 5.25358H13.4286C13.5801 5.25358 13.7255 5.19338 13.8326 5.08622C13.9398 4.97906 14 4.83372 14 4.68218V0.745248C14.0001 0.606522 13.9497 0.472509 13.8582 0.368212C13.7667 0.263914 13.6404 0.196455 13.5029 0.178421ZM12.8571 4.10964L11.0971 4.11078C8.632 4.11078 8.34629 5.66041 8.34629 6.82492V9.6362C8.34628 9.78754 8.40633 9.93271 8.51325 10.0398C8.62017 10.147 8.76522 10.2073 8.91657 10.2076H12.6263L12.2046 13.4646H8.91771C8.76616 13.4646 8.62082 13.5248 8.51365 13.6319C8.40649 13.7391 8.34629 13.8844 8.34629 14.036V22.8561H4.94286V14.036C4.94286 13.8844 4.88265 13.7391 4.77549 13.6319C4.66833 13.5248 4.52298 13.4646 4.37143 13.4646H1.144V10.2076H4.37143C4.52298 10.2076 4.66833 10.1474 4.77549 10.0402C4.88265 9.93308 4.94286 9.78774 4.94286 9.6362V6.38837C4.94286 3.10398 6.84571 1.14294 10.032 1.14294C11.1851 1.14294 12.2263 1.20579 12.8571 1.26065V4.10964Z" fill="#666666"/>
</svg>
