<svg width="25" height="25" viewBox="0 0 25 25" fill="none" xmlns="http://www.w3.org/2000/svg">
<path d="M24.7627 10.2284C24.7371 10.0914 24.6634 9.96753 24.5543 9.87836C24.4452 9.78919 24.3077 9.74038 24.1657 9.74042H12.7387C12.5782 9.74042 12.4242 9.8028 12.3105 9.91389C12.1968 10.025 12.1326 10.1757 12.132 10.3332V14.9382C12.132 15.0961 12.1959 15.2475 12.3097 15.3591C12.4235 15.4707 12.5778 15.5334 12.7387 15.5334H18.4837C18.1242 16.558 17.4303 17.4377 16.5097 18.0365C15.385 18.7405 14.0725 19.1009 12.7387 19.072C11.3517 19.059 10.0044 18.6171 8.88848 17.809C7.77261 17.0009 6.94515 15.868 6.52401 14.5717V14.5693C6.05807 13.2264 6.05807 11.7701 6.52401 10.4272V10.4248C6.94502 9.12883 7.77211 7.99619 8.8875 7.18816C10.0029 6.38013 11.3497 5.93792 12.7362 5.92448C14.3052 5.89874 15.8216 6.47881 16.9586 7.53965C17.0731 7.64759 17.2262 7.70717 17.385 7.70562C17.5438 7.70406 17.6956 7.64148 17.8079 7.53132L21.2877 4.11649C21.3454 4.05994 21.3909 3.99256 21.4215 3.91837C21.452 3.84418 21.467 3.76471 21.4655 3.68471C21.4641 3.60471 21.4462 3.52582 21.4129 3.45276C21.3796 3.3797 21.3317 3.31398 21.272 3.25951C18.9612 1.13685 15.9054 -0.0303605 12.7399 0.000600553C10.3767 -0.00650407 8.05844 0.634436 6.04681 1.8511C4.03519 3.06776 2.41022 4.81173 1.35525 6.8862C0.464084 8.62779 0 10.5495 0 12.4982C0 14.4469 0.464084 16.3687 1.35525 18.1103C2.41022 20.1847 4.03519 21.9287 6.04681 23.1454C8.05844 24.362 10.3767 25.003 12.7399 24.9959C15.8436 25.076 18.8611 23.9893 21.1749 21.9583L21.181 21.956C22.434 20.7697 23.4206 19.3396 24.0773 17.7575C24.734 16.1753 25.0464 14.476 24.9944 12.7684C24.9944 11.9162 24.9156 11.0664 24.7627 10.2284ZM12.7399 1.19085C15.3814 1.16359 17.9463 2.06123 19.9737 3.72251L17.3529 6.29346C16.0468 5.26339 14.4156 4.71203 12.7399 4.73423C11.2423 4.74469 9.77966 5.17907 8.52765 5.98521C7.27564 6.79134 6.28751 7.93493 5.68197 9.2786L2.67292 6.98856C3.66809 5.22662 5.12732 3.75917 6.89817 2.73952C8.66903 1.71987 10.6865 1.18424 12.7399 1.19085ZM1.2133 12.4994C1.20942 10.9819 1.52027 9.47952 2.12693 8.08359L5.24881 10.457C4.86993 11.7928 4.86993 13.2048 5.24881 14.5407L2.12693 16.9141C1.52621 15.5163 1.21521 14.0152 1.21208 12.4982M12.7387 23.8056C10.685 23.8123 8.66715 23.2778 6.89606 22.2579C5.12496 21.238 3.6656 19.7702 2.6705 18.0079L5.68075 15.7179C6.2863 17.0615 7.27443 18.2051 8.52644 19.0113C9.77845 19.8174 11.2411 20.2518 12.7387 20.2622C14.1623 20.2833 15.5665 19.9356 16.8094 19.2541L16.9428 19.3553L19.8099 21.5406C17.7861 23.0665 15.2904 23.8659 12.7387 23.8056ZM20.7248 20.73L17.8395 18.5328C18.8978 17.6295 19.6118 16.4002 19.8645 15.0466C19.8805 14.9608 19.8771 14.8727 19.8546 14.7884C19.832 14.7041 19.7909 14.6257 19.7341 14.5588C19.6772 14.4918 19.6061 14.4378 19.5257 14.4008C19.4453 14.3637 19.3576 14.3445 19.2688 14.3443H13.3453V10.9295H23.6489C23.7362 11.5397 23.7799 12.1527 23.7799 12.7684C23.8675 15.7134 22.77 18.5726 20.7248 20.73Z" fill="#666666"/>
</svg>
