<svg width="9" height="14" viewBox="0 0 9 14" fill="none" xmlns="http://www.w3.org/2000/svg">
<path fill-rule="evenodd" clip-rule="evenodd" d="M8.06247 8.73854L2.43747 4.98854L8.06247 1.23854C8.13634 1.1893 8.19978 1.12598 8.24918 1.05222C8.29858 0.978451 8.33297 0.895678 8.35038 0.808624C8.36779 0.721569 8.36789 0.631937 8.35066 0.544845C8.33343 0.457754 8.29921 0.374909 8.24997 0.301041C8.20072 0.227172 8.13741 0.163727 8.06364 0.114327C7.98988 0.0649264 7.90711 0.0305392 7.82005 0.0131283C7.733 -0.00428273 7.64336 -0.00437648 7.55627 0.0128523C7.46918 0.0300812 7.38634 0.0642952 7.31247 0.113541L0.935969 4.36454C0.833251 4.43303 0.749029 4.52582 0.690779 4.63468C0.632528 4.74353 0.602051 4.86508 0.602051 4.98854C0.602051 5.112 0.632528 5.23355 0.690779 5.3424C0.749029 5.45126 0.833251 5.54405 0.935969 5.61254L7.31247 9.86354C7.38634 9.91279 7.46918 9.947 7.55627 9.96423C7.64336 9.98146 7.733 9.98137 7.82005 9.96395C7.90711 9.94654 7.98988 9.91216 8.06364 9.86276C8.13741 9.81336 8.20072 9.74991 8.24997 9.67604C8.29921 9.60217 8.33343 9.51933 8.35066 9.43224C8.36789 9.34515 8.36779 9.25551 8.35038 9.16846C8.33297 9.0814 8.29858 8.99863 8.24918 8.92487C8.19978 8.8511 8.13634 8.78779 8.06247 8.73854Z" fill="black"/>
<path d="M8.25 13.2371H0.75C0.551088 13.2371 0.360322 13.158 0.21967 13.0174C0.0790178 12.8767 0 12.686 0 12.4871C0 12.2881 0.0790178 12.0974 0.21967 11.9567C0.360322 11.8161 0.551088 11.7371 0.75 11.7371H8.25C8.44891 11.7371 8.63968 11.8161 8.78033 11.9567C8.92098 12.0974 9 12.2881 9 12.4871C9 12.686 8.92098 12.8767 8.78033 13.0174C8.63968 13.158 8.44891 13.2371 8.25 13.2371Z" fill="black"/>
</svg>
