<svg width="23" height="23" viewBox="0 0 23 23" fill="none" xmlns="http://www.w3.org/2000/svg">
<path d="M11.7425 0.500039C7.92135 0.489806 4.55871 2.50818 2.63685 5.55747C2.55166 5.69305 2.64687 5.87212 2.80473 5.87212H4.56623C4.6865 5.87212 4.79926 5.8184 4.87443 5.72375C5.04983 5.50631 5.23776 5.29654 5.43571 5.09701C6.25256 4.26561 7.20222 3.61073 8.25962 3.15538C9.3521 2.68469 10.5147 2.44422 11.715 2.44422C12.9152 2.44422 14.0778 2.68213 15.1703 3.15538C16.2277 3.61073 17.1774 4.26561 17.9942 5.09701C18.8111 5.9284 19.45 6.89794 19.8985 7.97491C20.3621 9.09026 20.5951 10.2747 20.5951 11.5C20.5951 12.7254 20.3596 13.9098 19.8985 15.0251C19.4525 16.1021 18.8111 17.0716 17.9942 17.903C17.1774 18.7344 16.2277 19.3893 15.1703 19.8447C14.077 20.3161 12.9018 20.558 11.715 20.5558C10.5147 20.5558 9.3521 20.3154 8.25962 19.8447C7.20428 19.3898 6.24529 18.7304 5.43571 17.903C5.23776 17.7009 5.05234 17.4912 4.87443 17.2763C4.79926 17.1816 4.684 17.1279 4.56623 17.1279H2.80473C2.64687 17.1279 2.54915 17.307 2.63685 17.4426C4.55621 20.4842 7.90381 22.5 11.715 22.5C17.6334 22.5 22.4393 17.637 22.4994 11.6126C22.5596 5.49096 17.7462 0.515388 11.7425 0.500039ZM8.56832 14.3651V12.4209H0.700455C0.590205 12.4209 0.5 12.3289 0.5 12.2163V10.7837C0.5 10.6712 0.590205 10.5791 0.700455 10.5791H8.56832V8.63491C8.56832 8.46351 8.76376 8.3663 8.89406 8.47375L12.4496 11.3389C12.4736 11.358 12.493 11.3825 12.5063 11.4104C12.5196 11.4383 12.5265 11.469 12.5265 11.5C12.5265 11.5311 12.5196 11.5617 12.5063 11.5897C12.493 11.6176 12.4736 11.642 12.4496 11.6612L8.89406 14.5263C8.76376 14.6312 8.56832 14.5365 8.56832 14.3651Z" fill="#67A682" stroke="#67A682"/>
</svg>
