<svg width="28" height="28" viewBox="0 0 28 28" fill="none" xmlns="http://www.w3.org/2000/svg">
<rect width="28" height="28" rx="14" fill="#67A682"/>
<path d="M21 18.9524V19.7143H7V18.9524L8.55556 17.4286V12.8571C8.55556 10.4952 10.1344 8.41524 12.4444 7.74476V7.52381C12.4444 7.11967 12.6083 6.73208 12.9001 6.44631C13.1918 6.16054 13.5874 6 14 6C14.4126 6 14.8082 6.16054 15.0999 6.44631C15.3917 6.73208 15.5556 7.11967 15.5556 7.52381V7.74476C17.8656 8.41524 19.4444 10.4952 19.4444 12.8571V17.4286L21 18.9524ZM15.5556 20.4762C15.5556 20.8803 15.3917 21.2679 15.0999 21.5537C14.8082 21.8395 14.4126 22 14 22C13.5874 22 13.1918 21.8395 12.9001 21.5537C12.6083 21.2679 12.4444 20.8803 12.4444 20.4762" fill="white"/>
</svg>
