<svg width="13" height="13" viewBox="0 0 13 13" fill="none" xmlns="http://www.w3.org/2000/svg">
<path d="M6.56673 12.5C4.87325 12.5 3.43861 11.9191 2.26282 10.7574C1.08761 9.59514 0.5 8.17686 0.5 6.50257C0.5 4.82829 1.08761 3.40943 2.26282 2.246C3.43803 1.08257 4.87267 0.500571 6.56673 0.5C7.59692 0.5 8.56153 0.742 9.46057 1.226C10.359 1.71 11.0833 2.38571 11.6333 3.25314V0.5H12.5V4.98286H7.96728V4.12571H11.174C10.7222 3.27143 10.0872 2.59629 9.26903 2.10029C8.45089 1.60429 7.55012 1.35657 6.56673 1.35714C5.12227 1.35714 3.89448 1.85714 2.88336 2.85714C1.87224 3.85714 1.36668 5.07143 1.36668 6.5C1.36668 7.92857 1.87224 9.14286 2.88336 10.1429C3.89448 11.1429 5.12227 11.6429 6.56673 11.6429C7.67897 11.6429 8.68287 11.3286 9.57843 10.7C10.474 10.0714 11.1023 9.24286 11.4635 8.21429H12.3839C12.0014 9.49771 11.2751 10.5329 10.205 11.3197C9.13498 12.1066 7.92222 12.5 6.56673 12.5Z" fill="#FFFAF0" stroke="#FFFAF0" stroke-linejoin="round"/>
</svg>
