<svg width="22" height="22" viewBox="0 0 22 22" fill="none" xmlns="http://www.w3.org/2000/svg">
<path d="M20.5 20.5L15.2293 14.91M15.2293 14.91C15.9761 14.1806 16.5685 13.3146 16.9727 12.3615C17.3769 11.4085 17.5849 10.387 17.5849 9.35541C17.5849 8.32382 17.3769 7.30234 16.9727 6.34927C16.5685 5.39621 15.9761 4.53024 15.2293 3.8008C14.4825 3.07135 13.5959 2.49273 12.6202 2.09796C11.6444 1.70319 10.5986 1.5 9.54244 1.5C8.48629 1.5 7.44049 1.70319 6.46473 2.09796C5.48898 2.49273 4.60239 3.07135 3.85558 3.8008C2.34733 5.27397 1.5 7.27203 1.5 9.35541C1.5 11.4388 2.34733 13.4368 3.85558 14.91C5.36383 16.3832 7.40945 17.2108 9.54244 17.2108C11.6754 17.2108 13.7211 16.3832 15.2293 14.91Z" stroke="white" stroke-width="3" stroke-linecap="round" stroke-linejoin="round"/>
</svg>
