<svg width="22" height="22" viewBox="0 0 22 22" fill="none" xmlns="http://www.w3.org/2000/svg">
<path d="M3.90622 17.7039C4.94511 16.9559 6.04756 16.3647 7.21356 15.9304C8.37874 15.4953 9.64089 15.2778 11 15.2778C12.3591 15.2778 13.6213 15.4953 14.7864 15.9304C15.9516 16.3656 17.0541 16.9563 18.0938 17.7027C18.9004 16.8675 19.5494 15.8816 20.0408 14.7449C20.5321 13.6066 20.7778 12.3583 20.7778 11C20.7778 8.29074 19.8257 5.98359 17.9214 4.07856C16.0172 2.17352 13.7101 1.22141 11 1.22222C8.28993 1.22304 5.98278 2.17556 4.07856 4.07978C2.17433 5.984 1.22222 8.29074 1.22222 11C1.22222 12.3583 1.46789 13.6066 1.95922 14.7449C2.45056 15.8824 3.09956 16.8683 3.90622 17.7027M8.39422 10.5502C7.68696 9.84296 7.33333 8.97437 7.33333 7.94444C7.33333 6.91452 7.68696 6.04593 8.39422 5.33867C9.10148 4.63141 9.97007 4.27778 11 4.27778C12.0299 4.27778 12.8985 4.63141 13.6058 5.33867C14.313 6.04593 14.6667 6.91452 14.6667 7.94444C14.6667 8.97437 14.313 9.84296 13.6058 10.5502C12.8985 11.2575 12.0299 11.6111 11 11.6111C9.97007 11.6111 9.10148 11.2575 8.39422 10.5502ZM11 22C9.4657 22 8.02959 21.7144 6.69167 21.1432C5.35374 20.572 4.18937 19.7914 3.19856 18.8014C2.20774 17.8114 1.42715 16.6471 0.856779 15.3083C0.286409 13.9696 0.000816553 12.5335 1.73858e-06 11C-0.000813076 9.46652 0.284779 8.03041 0.856779 6.69167C1.42878 5.35293 2.20937 4.18856 3.19856 3.19856C4.18937 2.20856 5.35374 1.42796 6.69167 0.856778C8.02959 0.285593 9.4657 0 11 0C12.5343 0 13.9704 0.285593 15.3083 0.856778C16.6463 1.42796 17.8106 2.20856 18.8014 3.19856C19.7923 4.18856 20.5729 5.35293 21.1432 6.69167C21.7136 8.03041 21.9992 9.46652 22 11C22.0008 12.5335 21.7152 13.9696 21.1432 15.3083C20.5712 16.6471 19.7906 17.8114 18.8014 18.8014C17.8106 19.7914 16.6463 20.572 15.3083 21.1432C13.9704 21.7144 12.5343 22 11 22ZM14.3257 20.1862C15.4159 19.7927 16.3582 19.2533 17.1527 18.568C16.359 17.93 15.4403 17.426 14.3966 17.0561C13.3528 16.6862 12.2206 16.5008 11 16.5C9.77941 16.4992 8.64315 16.6805 7.59122 17.0439C6.5393 17.4073 5.62426 17.9153 4.84611 18.568C5.64056 19.2524 6.5833 19.7919 7.67433 20.1862C8.76537 20.5806 9.87393 20.7778 11 20.7778C12.1261 20.7778 13.2346 20.5806 14.3257 20.1862ZM12.7368 9.68122C13.2086 9.20944 13.4444 8.63052 13.4444 7.94444C13.4444 7.25837 13.2086 6.67944 12.7368 6.20767C12.265 5.73589 11.6861 5.5 11 5.5C10.3139 5.5 9.735 5.73589 9.26322 6.20767C8.79145 6.67944 8.55556 7.25837 8.55556 7.94444C8.55556 8.63052 8.79145 9.20944 9.26322 9.68122C9.735 10.153 10.3139 10.3889 11 10.3889C11.6861 10.3889 12.265 10.153 12.7368 9.68122Z" fill="black"/>
</svg>
