<svg width="194" height="26" viewBox="0 0 194 26" fill="none" xmlns="http://www.w3.org/2000/svg">
<path d="M14.84 25.27V24.57C15.5867 24.5234 16.1467 24.43 16.52 24.29C16.8933 24.15 17.1383 23.87 17.255 23.45C17.395 23.03 17.465 22.4 17.465 21.56V4.20002C17.465 3.33668 17.395 2.70668 17.255 2.31002C17.1383 1.89002 16.8817 1.61002 16.485 1.47002C16.1117 1.30669 15.5633 1.21335 14.84 1.19002V0.490019C15.47 0.513352 16.2867 0.536685 17.29 0.560018C18.3167 0.583352 19.3317 0.595018 20.335 0.595018C21.4083 0.595018 22.4117 0.583352 23.345 0.560018C24.3017 0.536685 25.0717 0.513352 25.655 0.490019V1.19002C24.9083 1.21335 24.3367 1.30669 23.94 1.47002C23.5667 1.61002 23.3217 1.89002 23.205 2.31002C23.0883 2.70668 23.03 3.33668 23.03 4.20002V21.56C23.03 22.4 23.0883 23.03 23.205 23.45C23.345 23.87 23.6017 24.15 23.975 24.29C24.3483 24.43 24.9083 24.5234 25.655 24.57V25.27C25.0717 25.2234 24.3017 25.2 23.345 25.2C22.4117 25.1767 21.4083 25.165 20.335 25.165C19.3317 25.165 18.3167 25.1767 17.29 25.2C16.2867 25.2 15.47 25.2234 14.84 25.27ZM-2.37674e-06 25.27V24.57C0.746664 24.5234 1.30666 24.43 1.68 24.29C2.05333 24.15 2.29833 23.87 2.415 23.45C2.555 23.03 2.625 22.4 2.625 21.56V4.20002C2.625 3.33668 2.555 2.70668 2.415 2.31002C2.29833 1.89002 2.04166 1.61002 1.645 1.47002C1.27166 1.30669 0.723331 1.21335 -2.37674e-06 1.19002V0.490019C0.606664 0.513352 1.38833 0.536685 2.345 0.560018C3.325 0.583352 4.38666 0.595018 5.53 0.595018C6.51 0.595018 7.47833 0.583352 8.435 0.560018C9.39166 0.536685 10.185 0.513352 10.815 0.490019V1.19002C10.0683 1.21335 9.49666 1.30669 9.1 1.47002C8.72666 1.61002 8.48166 1.89002 8.365 2.31002C8.24833 2.70668 8.19 3.33668 8.19 4.20002V21.56C8.19 22.4 8.24833 23.03 8.365 23.45C8.505 23.87 8.76166 24.15 9.135 24.29C9.50833 24.43 10.0683 24.5234 10.815 24.57V25.27C10.185 25.2234 9.39166 25.2 8.435 25.2C7.47833 25.1767 6.51 25.165 5.53 25.165C4.38666 25.165 3.325 25.1767 2.345 25.2C1.38833 25.2 0.606664 25.2234 -2.37674e-06 25.27ZM5.915 13.16V12.46H19.74V13.16H5.915ZM40.4247 1.7345e-05C42.8981 1.7345e-05 45.0564 0.501685 46.8997 1.50502C48.7664 2.50835 50.2131 3.95502 51.2397 5.84502C52.2664 7.71169 52.7797 9.98669 52.7797 12.67C52.7797 15.2834 52.2547 17.57 51.2047 19.53C50.1547 21.49 48.6847 23.0184 46.7947 24.115C44.9281 25.2117 42.7931 25.76 40.3897 25.76C37.9164 25.76 35.7464 25.2584 33.8797 24.255C32.0364 23.2517 30.6014 21.805 29.5747 19.915C28.5481 18.025 28.0347 15.75 28.0347 13.09C28.0347 10.4767 28.5597 8.19002 29.6097 6.23002C30.6831 4.27002 32.1414 2.74169 33.9847 1.64502C35.8514 0.548351 37.9981 1.7345e-05 40.4247 1.7345e-05ZM40.2847 0.630018C38.9781 0.630018 37.8347 1.15502 36.8547 2.20502C35.8981 3.25502 35.1514 4.70169 34.6147 6.54502C34.1014 8.38835 33.8447 10.5234 33.8447 12.95C33.8447 15.4234 34.1364 17.5817 34.7197 19.425C35.3264 21.245 36.1314 22.6567 37.1347 23.66C38.1614 24.64 39.2931 25.13 40.5297 25.13C41.8364 25.13 42.9681 24.605 43.9247 23.555C44.9047 22.505 45.6514 21.0584 46.1647 19.215C46.7014 17.3484 46.9697 15.2134 46.9697 12.81C46.9697 10.3134 46.6664 8.15502 46.0597 6.33502C45.4764 4.51502 44.6714 3.11502 43.6447 2.13502C42.6414 1.13168 41.5214 0.630018 40.2847 0.630018ZM85.3002 0.490019V1.19002C84.5535 1.21335 83.9935 1.30669 83.6202 1.47002C83.2469 1.61002 82.9902 1.89002 82.8502 2.31002C82.7335 2.70668 82.6752 3.33668 82.6752 4.20002V21.56C82.6752 22.4 82.7335 23.03 82.8502 23.45C82.9902 23.87 83.2469 24.15 83.6202 24.29C83.9935 24.43 84.5535 24.5234 85.3002 24.57V25.27C84.6469 25.2234 83.8185 25.2 82.8152 25.2C81.8352 25.1767 80.8319 25.165 79.8052 25.165C78.6852 25.165 77.6352 25.1767 76.6552 25.2C75.6752 25.2 74.8819 25.2234 74.2752 25.27V24.57C75.0685 24.5234 75.6635 24.43 76.0602 24.29C76.4802 24.15 76.7602 23.87 76.9002 23.45C77.0402 23.03 77.1102 22.4 77.1102 21.56V2.62502H77.3552L68.6752 25.305H68.1152L58.6652 2.76502V19.53C58.6652 20.8134 58.7352 21.805 58.8752 22.505C59.0152 23.1817 59.3185 23.6717 59.7852 23.975C60.2752 24.255 61.0335 24.4534 62.0602 24.57V25.27C61.6169 25.2234 61.0335 25.2 60.3102 25.2C59.5869 25.1767 58.9102 25.165 58.2802 25.165C57.7435 25.165 57.1952 25.1767 56.6352 25.2C56.0752 25.2 55.6085 25.2234 55.2352 25.27V24.57C55.9819 24.4534 56.5419 24.255 56.9152 23.975C57.2885 23.695 57.5335 23.24 57.6502 22.61C57.7902 21.9567 57.8602 21.07 57.8602 19.95V4.20002C57.8602 3.33668 57.7902 2.70668 57.6502 2.31002C57.5335 1.89002 57.2769 1.61002 56.8802 1.47002C56.5069 1.30669 55.9585 1.21335 55.2352 1.19002V0.490019C55.6085 0.513352 56.0752 0.536685 56.6352 0.560018C57.1952 0.583352 57.7435 0.595018 58.2802 0.595018C59.2835 0.595018 60.2635 0.583352 61.2202 0.560018C62.2002 0.536685 63.0635 0.513352 63.8102 0.490019L71.1602 18.235L70.2852 19.04L77.3202 0.595018C77.7169 0.595018 78.1252 0.595018 78.5452 0.595018C78.9652 0.595018 79.3852 0.595018 79.8052 0.595018C80.8319 0.595018 81.8352 0.583352 82.8152 0.560018C83.8185 0.536685 84.6469 0.513352 85.3002 0.490019ZM106.362 0.490019C106.268 1.51669 106.198 2.50835 106.152 3.46502C106.128 4.42169 106.117 5.15669 106.117 5.67002C106.117 6.13669 106.128 6.58002 106.152 7.00002C106.175 7.42002 106.198 7.77002 106.222 8.05002H105.417C105.183 6.34669 104.822 5.00502 104.332 4.02502C103.842 3.02168 103.2 2.32168 102.407 1.92502C101.637 1.50502 100.727 1.29502 99.6767 1.29502H98.2417C97.5651 1.29502 97.0517 1.35335 96.7017 1.47002C96.3517 1.58669 96.1184 1.82002 96.0017 2.17002C95.885 2.52002 95.8267 3.05668 95.8267 3.78002V21.98C95.8267 22.7034 95.885 23.24 96.0017 23.59C96.1184 23.94 96.3517 24.1734 96.7017 24.29C97.0517 24.4067 97.5651 24.465 98.2417 24.465H99.9567C101.007 24.465 101.928 24.2434 102.722 23.8C103.538 23.3334 104.227 22.5517 104.787 21.455C105.37 20.3584 105.813 18.8767 106.117 17.01H106.922C106.852 17.7567 106.817 18.7367 106.817 19.95C106.817 20.4867 106.828 21.245 106.852 22.225C106.875 23.205 106.945 24.22 107.062 25.27C105.872 25.2234 104.53 25.2 103.037 25.2C101.543 25.1767 100.213 25.165 99.0467 25.165C98.4634 25.165 97.7167 25.165 96.8067 25.165C95.8967 25.165 94.9167 25.1767 93.8667 25.2C92.8167 25.2 91.755 25.2117 90.6817 25.235C89.6084 25.235 88.5934 25.2467 87.6367 25.27V24.57C88.3834 24.5234 88.9434 24.43 89.3167 24.29C89.69 24.15 89.935 23.87 90.0517 23.45C90.1917 23.03 90.2617 22.4 90.2617 21.56V4.20002C90.2617 3.33668 90.1917 2.70668 90.0517 2.31002C89.935 1.89002 89.6784 1.61002 89.2817 1.47002C88.9084 1.30669 88.36 1.21335 87.6367 1.19002V0.490019C88.5934 0.513352 89.6084 0.536685 90.6817 0.560018C91.755 0.560018 92.8167 0.571685 93.8667 0.595018C94.9167 0.595018 95.8967 0.595018 96.8067 0.595018C97.7167 0.595018 98.4634 0.595018 99.0467 0.595018C100.12 0.595018 101.333 0.595018 102.687 0.595018C104.063 0.571685 105.288 0.536685 106.362 0.490019ZM100.902 12.46C100.902 12.46 100.902 12.5767 100.902 12.81C100.902 13.0434 100.902 13.16 100.902 13.16H94.7767C94.7767 13.16 94.7767 13.0434 94.7767 12.81C94.7767 12.5767 94.7767 12.46 94.7767 12.46H100.902ZM101.917 7.84002C101.823 9.17002 101.777 10.185 101.777 10.885C101.8 11.585 101.812 12.2267 101.812 12.81C101.812 13.3934 101.823 14.035 101.847 14.735C101.87 15.435 101.928 16.45 102.022 17.78H101.217C101.1 16.9634 100.878 16.205 100.552 15.505C100.248 14.805 99.8051 14.245 99.2217 13.825C98.6384 13.3817 97.88 13.16 96.9467 13.16V12.46C97.6467 12.46 98.2417 12.32 98.7317 12.04C99.2217 11.7367 99.6184 11.3517 99.9217 10.885C100.248 10.395 100.505 9.88169 100.692 9.34502C100.878 8.80835 101.018 8.30669 101.112 7.84002H101.917ZM118.569 0.035019C119.946 0.035019 121.008 0.186686 121.754 0.490019C122.501 0.770019 123.143 1.07335 123.679 1.40002C123.959 1.56335 124.181 1.69169 124.344 1.78502C124.531 1.85502 124.706 1.89002 124.869 1.89002C125.103 1.89002 125.266 1.76168 125.359 1.50502C125.476 1.24835 125.569 0.863351 125.639 0.350019H126.444C126.421 0.793352 126.386 1.33002 126.339 1.96002C126.316 2.56669 126.293 3.37169 126.269 4.37502C126.269 5.37835 126.269 6.69669 126.269 8.33002H125.464C125.371 7.11669 125.091 5.93835 124.624 4.79502C124.158 3.65169 123.493 2.71835 122.629 1.99502C121.789 1.24835 120.751 0.875019 119.514 0.875019C118.394 0.875019 117.473 1.19002 116.749 1.82002C116.026 2.45002 115.664 3.32502 115.664 4.44502C115.664 5.37835 115.898 6.18335 116.364 6.86002C116.831 7.51335 117.508 8.15502 118.394 8.78502C119.304 9.41502 120.401 10.1734 121.684 11.06C122.804 11.7834 123.808 12.5067 124.694 13.23C125.581 13.9534 126.293 14.77 126.829 15.68C127.366 16.59 127.634 17.675 127.634 18.935C127.634 20.475 127.226 21.7467 126.409 22.75C125.616 23.7534 124.566 24.5117 123.259 25.025C121.953 25.515 120.518 25.76 118.954 25.76C117.508 25.76 116.353 25.62 115.489 25.34C114.626 25.06 113.903 24.7684 113.319 24.465C112.806 24.1384 112.409 23.975 112.129 23.975C111.896 23.975 111.721 24.1034 111.604 24.36C111.511 24.6167 111.429 25.0017 111.359 25.515H110.554C110.601 24.955 110.624 24.3017 110.624 23.555C110.648 22.8084 110.659 21.84 110.659 20.65C110.683 19.4367 110.694 17.9084 110.694 16.065H111.499C111.593 17.605 111.849 19.0517 112.269 20.405C112.713 21.735 113.378 22.8084 114.264 23.625C115.174 24.4417 116.376 24.85 117.869 24.85C118.686 24.85 119.409 24.71 120.039 24.43C120.693 24.1267 121.218 23.6834 121.614 23.1C122.011 22.5167 122.209 21.7934 122.209 20.93C122.209 19.95 121.976 19.0984 121.509 18.375C121.066 17.6517 120.448 16.975 119.654 16.345C118.884 15.715 117.986 15.0734 116.959 14.42C115.863 13.6967 114.836 12.9734 113.879 12.25C112.923 11.5267 112.153 10.6984 111.569 9.76502C111.009 8.83169 110.729 7.72335 110.729 6.44002C110.729 4.97002 111.091 3.76835 111.814 2.83502C112.561 1.87835 113.529 1.17835 114.719 0.735018C115.933 0.268352 117.216 0.035019 118.569 0.035019ZM151.539 0.490019C151.445 1.68002 151.375 2.82335 151.329 3.92002C151.305 5.01669 151.294 5.85669 151.294 6.44002C151.294 6.95335 151.305 7.44335 151.329 7.91002C151.352 8.37669 151.375 8.77335 151.399 9.10002H150.594C150.22 7.14002 149.742 5.58835 149.159 4.44502C148.599 3.30168 147.922 2.49668 147.129 2.03002C146.335 1.54002 145.402 1.29502 144.329 1.29502H143.524V21.28C143.524 22.2134 143.617 22.9134 143.804 23.38C144.014 23.8467 144.387 24.1617 144.924 24.325C145.46 24.465 146.242 24.5467 147.269 24.57V25.27C146.545 25.2467 145.577 25.2234 144.364 25.2C143.174 25.1767 141.925 25.165 140.619 25.165C139.335 25.165 138.122 25.1767 136.979 25.2C135.835 25.2234 134.914 25.2467 134.214 25.27V24.57C135.264 24.5467 136.057 24.465 136.594 24.325C137.13 24.1617 137.492 23.8467 137.679 23.38C137.865 22.9134 137.959 22.2134 137.959 21.28V1.29502H137.189C136.115 1.29502 135.182 1.54002 134.389 2.03002C133.595 2.49668 132.919 3.30168 132.359 4.44502C131.799 5.56502 131.309 7.11668 130.889 9.10002H130.084C130.13 8.77335 130.154 8.37669 130.154 7.91002C130.177 7.44335 130.189 6.95335 130.189 6.44002C130.189 5.85669 130.165 5.01669 130.119 3.92002C130.095 2.82335 130.037 1.68002 129.944 0.490019C131.017 0.513352 132.184 0.536685 133.444 0.560018C134.727 0.583352 136.01 0.595018 137.294 0.595018C138.577 0.595018 139.732 0.595018 140.759 0.595018C141.809 0.595018 142.964 0.595018 144.224 0.595018C145.507 0.595018 146.79 0.583352 148.074 0.560018C149.357 0.536685 150.512 0.513352 151.539 0.490019ZM163.311 0.420018L171.816 22.33C172.143 23.17 172.504 23.7534 172.901 24.08C173.321 24.3834 173.694 24.5467 174.021 24.57V25.27C173.321 25.2234 172.493 25.2 171.536 25.2C170.603 25.1767 169.658 25.165 168.701 25.165C167.628 25.165 166.613 25.1767 165.656 25.2C164.699 25.2 163.941 25.2234 163.381 25.27V24.57C164.571 24.5234 165.318 24.325 165.621 23.975C165.948 23.6017 165.878 22.82 165.411 21.63L159.461 5.35502L160.091 4.44502L154.771 18.305C154.258 19.5884 153.943 20.6384 153.826 21.455C153.733 22.2717 153.791 22.9017 154.001 23.345C154.234 23.7884 154.596 24.1034 155.086 24.29C155.599 24.4534 156.206 24.5467 156.906 24.57V25.27C156.136 25.2234 155.401 25.2 154.701 25.2C154.001 25.1767 153.289 25.165 152.566 25.165C152.053 25.165 151.563 25.1767 151.096 25.2C150.653 25.2 150.256 25.2234 149.906 25.27V24.57C150.396 24.4767 150.898 24.1617 151.411 23.625C151.924 23.0884 152.426 22.1784 152.916 20.895L160.896 0.420018C161.269 0.443351 161.666 0.455018 162.086 0.455018C162.529 0.455018 162.938 0.443351 163.311 0.420018ZM165.761 15.19V15.89H155.331L155.681 15.19H165.761ZM193.423 0.455018V1.15502C192.909 1.36502 192.384 1.78502 191.848 2.41502C191.311 3.02168 190.716 3.95502 190.063 5.21502L183.448 18.305H181.803L173.613 3.15002C173.193 2.35669 172.808 1.83169 172.458 1.57502C172.131 1.31835 171.839 1.19002 171.583 1.19002V0.455018C172.213 0.525018 172.854 0.571685 173.508 0.595018C174.184 0.618351 174.919 0.630018 175.713 0.630018C176.739 0.630018 177.848 0.618351 179.038 0.595018C180.228 0.548352 181.313 0.501685 182.293 0.455018V1.19002C181.709 1.19002 181.184 1.23669 180.718 1.33002C180.251 1.42335 179.924 1.59835 179.738 1.85502C179.551 2.08835 179.598 2.47335 179.878 3.01002L185.408 13.65L184.323 15.05L187.928 7.80502C188.791 6.12502 189.246 4.80668 189.293 3.85002C189.363 2.89335 189.129 2.21668 188.593 1.82002C188.079 1.40002 187.344 1.17835 186.388 1.15502V0.455018C187.181 0.478352 187.928 0.501686 188.628 0.525019C189.328 0.548352 190.039 0.560018 190.763 0.560018C191.276 0.560018 191.754 0.548352 192.198 0.525019C192.664 0.501686 193.073 0.478352 193.423 0.455018ZM185.933 12.775V21.56C185.933 22.4 185.991 23.03 186.108 23.45C186.248 23.87 186.504 24.15 186.878 24.29C187.251 24.43 187.811 24.5234 188.558 24.57V25.27C187.928 25.2234 187.111 25.2 186.108 25.2C185.128 25.1767 184.148 25.165 183.168 25.165C182.071 25.165 181.033 25.1767 180.053 25.2C179.073 25.2 178.303 25.2234 177.743 25.27V24.57C178.489 24.5234 179.049 24.43 179.423 24.29C179.796 24.15 180.041 23.87 180.158 23.45C180.298 23.03 180.368 22.4 180.368 21.56V14.385L183.413 16.555L185.933 12.775Z" fill="black"/>
</svg>
